<svg t="1688220358859" class="icon" viewBox="0 0 1024 1024" version="1.1" xmlns="http://www.w3.org/2000/svg" p-id="1524" width="256" height="256"><path d="M298.666667 384h426.666666v85.333333H298.666667zM298.666667 554.666667h426.666666v85.333333H298.666667z" fill="#ff9494" p-id="1525"></path><path d="M853.333333 128h-128V42.666667h-85.333333v85.333333H384V42.666667H298.666667v85.333333H170.666667c-25.6 0-42.666667 17.066667-42.666667 42.666667v768c0 25.6 17.066667 42.666667 42.666667 42.666666h682.666666c25.6 0 42.666667-17.066667 42.666667-42.666666V170.666667c0-25.6-17.066667-42.666667-42.666667-42.666667z m-42.666666 768H213.333333V213.333333h85.333334v85.333334h85.333333V213.333333h256v85.333334h85.333333V213.333333h85.333334v682.666667z" fill="#ff9494" p-id="1526"></path></svg>